<?xml version="1.0" encoding="UTF-8" standalone="no"?>
<!-- Created with Inkscape (http://www.inkscape.org/) -->

<svg
   version="1.1"
   id="svg1"
   width="1536"
   height="1024"
   viewBox="0 0 1536 1024"
   sodipodi:docname="dieren.svg"
   inkscape:version="1.4 (e7c3feb1, 2024-10-09)"
   xmlns:inkscape="http://www.inkscape.org/namespaces/inkscape"
   xmlns:sodipodi="http://sodipodi.sourceforge.net/DTD/sodipodi-0.dtd"
   xmlns="http://www.w3.org/2000/svg"
   xmlns:svg="http://www.w3.org/2000/svg">
  <defs
     id="defs1" />
  <sodipodi:namedview
     id="namedview1"
     pagecolor="#ffffff"
     bordercolor="#000000"
     borderopacity="0.25"
     inkscape:showpageshadow="2"
     inkscape:pageopacity="0.0"
     inkscape:pagecheckerboard="0"
     inkscape:deskcolor="#d1d1d1"
     inkscape:zoom="0.78808594"
     inkscape:cx="767.68277"
     inkscape:cy="512.63445"
     inkscape:window-width="1920"
     inkscape:window-height="1027"
     inkscape:window-x="1728"
     inkscape:window-y="25"
     inkscape:window-maximized="1"
     inkscape:current-layer="g1" />
  <g
     inkscape:groupmode="layer"
     inkscape:label="Image"
     id="g1">
    <path
       id="path32"
       style="fill:#2d5016"
       d="m 1112.3622,422.73555 c -4.1292,-1.79619 -5.6679,-4.84048 -5.0805,-10.05177 0.4753,-4.21667 0.4753,-4.21667 -7.8589,-4.85728 -16.3719,-1.25845 -26.2336,-7.66515 -32.5387,-21.13877 -5.2783,-11.27955 -4.7163,-26.1602 1.3254,-35.08936 2.4386,-3.60408 8.9265,-7.40506 12.6397,-7.40506 2.0389,0 2.1843,-0.46863 2.1843,-7.04216 0,-8.66693 2.1478,-19.38199 6.1721,-30.79211 13.94,-39.52342 48.8598,-72.10129 85.3676,-79.64218 11.9216,-2.46248 34.8615,-1.90824 44.7103,1.08022 4.4159,1.33993 0.7801,-3.78152 -12.0353,-16.95305 -19.7985,-20.34872 -30.1609,-37.08846 -38.1636,-61.65072 -4.5944,-14.10131 -6.2257,-31.42473 -3.9558,-42.00888 2.1363,-9.960978 10.9475,-15.792918 19.8369,-13.129588 4.9534,1.48407 16.2249,11.087048 22.2466,18.953418 5.0624,6.61315 5.2453,6.58945 6.2884,-0.81495 0.8199,-5.82026 2.8471,-8.81555 7.1963,-10.63278 5.4288,-2.268267 8.9576,-0.51636 18.062,8.96694 8.9482,9.32069 14.325,16.83115 19.7089,27.53019 4.6645,9.26921 7.1159,18.80164 8.7001,33.83082 1.2443,11.80483 1.2443,11.80483 10.8049,11.98224 18.4577,0.3425 31.8173,6.6777 47.2729,22.41717 15.7007,15.98898 25.7877,32.68527 25.7877,42.68439 0,9.21109 -1.7566,13.8441 -7.6709,20.23233 -6.5185,7.04067 -13.6734,11.77871 -22.0389,14.59425 -6.2559,2.10554 -6.2559,2.10554 -6.6574,17 -0.4249,15.76193 -1.3506,20.55029 -6.6005,34.14231 -3.9411,10.20356 -8.802,18.26344 -16.6937,27.67998 -6.4582,7.70618 -6.4582,7.70618 -3.8339,15.58635 1.4434,4.33409 3.5719,9.08474 4.73,10.557 1.158,1.47226 5.7605,4.35742 10.2276,6.41147 9.4917,4.36443 13.1292,8.11054 14.0888,14.50928 0.9227,6.15343 0,8.97544 -3.8035,11.69167 -3.1144,2.22135 -4.0066,2.31639 -21.7476,2.31639 -17.4644,0 -18.7676,-0.13294 -23.2813,-2.37482 -6.4249,-3.19124 -12.7467,-10.53914 -21.5476,-25.04529 -4.0309,-6.64394 -7.5555,-12.07989 -7.8324,-12.07989 -0.2769,0 -3.5039,1.31494 -7.1711,2.92208 -3.6672,1.60715 -7.8814,3.22497 -9.3648,3.59517 -2.6973,0.67308 -2.6973,0.67308 2.6723,5.91552 10.3972,10.15084 10.3117,21.7591 -0.193,26.20525 -4.7525,2.01153 -107.3106,1.92379 -111.9534,-0.0958 z m 107.4542,-11.65889 c 0.531,-2.748 -4.594,-7.66505 -11.5674,-11.09801 -6.5418,-3.22051 -6.9095,-3.27985 -20.5544,-3.31658 -13.1077,-0.0353 -13.9947,-0.16248 -15.6846,-2.24942 -2.507,-3.0961 -1.4923,-5.68476 3.8997,-9.94857 12.6868,-10.03229 16.725,-15.65609 19.7723,-27.53612 5.0077,-19.52239 -4.7041,-40.34172 -22.6485,-48.55201 -4.3139,-1.97378 -7.6145,-2.61386 -15.3046,-2.96806 -8.9124,-0.41049 -9.9437,-0.66383 -11.3329,-2.78412 -3.0525,-4.65866 0.5031,-8.25147 9.0378,-9.13233 11.4178,-1.17842 26.3268,4.77323 37.024,14.77996 10.6817,9.99219 15.5757,21.84066 15.5757,37.70907 0,10.98462 -1.8474,19.06928 -6.3143,27.63288 -1.7442,3.34398 -3.3246,6.41746 -3.5119,6.82996 -0.5035,1.10908 12.6187,0.86374 17.8262,-0.33328 3.7159,-0.85416 15.3351,-5.39919 16.9394,-6.62611 0.2416,-0.18482 -0.3684,-2.58228 -1.3556,-5.32769 -1.6669,-4.6354 -1.6788,-5.16905 -0.1663,-7.47729 1.5972,-2.43771 4.901,-3.22623 7.208,-1.72032 0.619,0.40408 3.4906,5.45969 6.3813,11.23469 10.2022,20.38177 22.2371,37.58331 28.556,40.81501 2.4458,1.25085 27.4965,2.61834 30.5002,1.66498 2.0231,-0.64209 2.0306,-0.71947 0.26,-2.68776 -1.0026,-1.11465 -5.43,-3.6961 -9.8386,-5.73655 -4.5537,-2.10761 -9.1442,-5.05104 -10.6286,-6.81515 -3.0151,-3.58329 -8.3409,-15.85725 -10.0007,-23.04798 -1.5406,-6.67418 -0.6803,-9.2602 5.2647,-15.8248 11.5334,-12.73562 19.7028,-28.99118 22.5486,-44.86775 1.0506,-5.86147 1.2554,-11.61694 0.7659,-21.53056 -0.5356,-10.84728 -0.397,-13.75104 0.6988,-14.64238 0.7518,-0.6115 4.2919,-1.8428 7.8669,-2.73622 8.4951,-2.123 17.7672,-6.69388 21.5095,-10.60365 2.8782,-3.00693 2.9167,-3.16565 1.0244,-4.22633 -4.2299,-2.37106 -6.5339,-5.6317 -6.5339,-9.24679 0,-4.71819 1.9518,-5.34807 7.4816,-2.41449 2.4265,1.28723 4.7328,2.01931 5.1253,1.62686 1.2351,-1.23513 -1.4028,-7.97867 -5.7606,-14.72644 -2.3087,-3.575 -9.6312,-11.95072 -16.272,-18.61272 -16.9311,-16.98494 -24.2544,-20.31594 -44.7685,-20.36283 -15.4596,-0.0353 -15.3986,0.0352 -17.2958,-20.02445 -0.8062,-8.525 -2.2014,-17.975 -3.1004,-21 -3.3446,-11.25456 -11.2721,-24.41704 -21.0978,-35.02991 -6.3353,-6.8429 -6.9659,-6.6586 -7.3204,2.13951 -0.4113,10.20888 -0.1253,11.17464 6.4172,21.66785 8.9911,14.42051 13.8441,24.62459 19.1257,40.21397 5.841,17.24063 6.4142,21.06009 3.5852,23.88904 -2.59,2.59006 -6.2545,2.73282 -8.4305,0.32843 -0.8915,-0.98511 -2.2968,-4.69761 -3.1228,-8.25 -2.5482,-10.95793 -5.463,-19.01263 -11.0224,-30.45889 -9.1131,-18.76281 -28.4766,-45.7432 -41.4465,-57.75 -9.3802,-8.68359 -12.1476,-7.59509 -12.8805,5.06638 -0.7829,13.52353 4.2409,32.16787 13.8012,51.21929 6.0617,12.07956 10.1077,17.25543 26.5736,33.99443 8.5188,8.66015 14.0391,15.13897 15.3369,18 2.4857,5.47989 2.7518,14.5536 0.5202,17.73966 -2.7524,3.92956 -4.419,4.18365 -13.9732,2.13029 -13.7214,-2.94893 -30.1971,-3.54225 -40.498,-1.45842 -17.2038,3.48024 -34.7648,13.40723 -49.4137,27.93279 -29.9124,29.66066 -40.9588,69.76742 -28.4349,103.24051 2.6935,7.19906 10.5294,18.82478 16.7476,24.84748 5.6184,5.44179 6.2098,7.69352 3.6373,13.85037 -1.4832,3.54976 -1.4806,3.55776 1.25,3.91076 1.5049,0.19455 24.1046,0.33634 50.2215,0.31509 42.9174,-0.0349 47.5153,-0.19415 47.7976,-1.65528 z m 64.2171,-177.54373 c -3.7298,-1.47743 -6,-4.72375 -6,-8.57968 0,-5.20687 1.4641,-7.63807 5.6539,-9.38869 4.1136,-1.71876 6.8323,-1.09573 10.5961,2.42819 5.567,5.21218 2.3753,14.75756 -5.25,15.70122 -1.925,0.23823 -4.175,0.16576 -5,-0.16104 z m -183,162.26827 c 0,-0.21566 -2.3625,-4.15966 -5.25,-8.76444 -4.8081,-7.6676 -7.8763,-15.26383 -10.7662,-26.65457 -0.9835,-3.87625 -1.3656,-4.27973 -3.7888,-4 -3.9085,0.45121 -6.6744,6.49562 -6.6057,14.43548 0.1066,12.30881 8.1794,22.82807 18.6983,24.36469 6.9655,1.01753 7.7124,1.07746 7.7124,0.61884 z" />
    <path
       id="path25"
       style="fill:#2d5016"
       d="m 148.78344,437.1132 c -2.2673,-1.32058 -4.74998,-6.15473 -4.74998,-9.24891 0,-1.7637 -0.83401,-2.7738 -3.04716,-3.69051 -5.16648,-2.14003 -5.91824,-5.00573 -5.89419,-22.46855 0.0118,-8.61251 -0.51244,-21.16642 -1.16509,-27.89758 -0.65266,-6.73116 -0.8902,-13.81874 -0.52785,-15.75018 0.36234,-1.93144 3.04803,-7.30351 5.96819,-11.93794 10.47169,-16.61898 11.71076,-24.87195 6.74509,-44.92622 -3.67394,-14.83747 -5.51416,-28.66186 -4.6662,-35.05409 0.61307,-4.62159 0.61307,-4.62159 -3.14986,-5.79877 -9.48725,-2.96795 -18.51591,-13.58498 -22.38499,-26.32308 -3.51364,-11.5679 -1.59042,-30.20249 3.65888,-35.45179 4.84305,-4.84305 8.93372,-2.57354 19.86706,11.02228 2.74561,3.41421 5.76887,5.72728 10.18968,7.79603 9.06288,4.24103 15.00971,4.54269 25.40644,1.28877 12.5347,-3.92306 25.93198,-4.28849 54.44255,-1.485 18.64038,1.83294 26.61457,2.15154 42.97247,1.71694 34.66887,-0.92108 47.18692,-5.11296 63.10758,-21.1326 4.96243,-4.99328 10.48299,-10.95363 12.26792,-13.24522 3.24532,-4.16654 3.24532,-4.16654 -0.5226,-5.38533 -13.76571,-4.45273 -28.13511,-18.96042 -28.52757,-28.8021 -0.19818,-4.96962 1.82893,-7.42747 8.13211,-9.8601 3.86711,-1.49246 7.79066,-1.78594 23.87639,-1.78594 10.58687,0 19.24937,-0.13485 19.25,-0.29966 0.006,-1.54869 -3.81937,-6.65198 -8.17181,-10.90187 -7.16747,-6.9986 -15.08525,-10.52838 -24.88974,-11.09596 -9.17977,-0.53141 -15.36225,0.66595 -28.09241,5.44062 -10.62634,3.9856 -13.32852,3.96415 -17.43101,-0.13834 -3.35006,-3.35006 -3.19156,-8.1396 0.43368,-13.10475 15.71703,-21.526158 47.8605,-29.862878 76.96863,-19.962558 18.77551,6.38596 33.96366,18.519818 46.39178,37.062518 3.31771,4.95 7.71664,11.025 9.77542,13.5 2.05878,2.475 5.86714,7.875 8.46302,12 3.22175,5.11953 9.55673,12.26094 19.95925,22.5 17.92972,17.64799 19.73759,20.6192 19.7845,32.51562 0.0593,15.02826 -7.39192,24.99419 -20.09312,26.87448 -4.59704,0.68055 -4.59704,0.68055 -4.41746,4.79703 0.0988,2.26407 1.11127,5.94274 2.25,8.17484 2.93775,5.75846 2.73417,10.47076 -0.56444,13.06545 -3.52541,2.77309 -14.99189,2.87956 -20.90385,0.19411 -8.18707,-3.71891 -15.1839,-14.6422 -16.89208,-26.37153 -0.69176,-4.75 -0.69176,-4.75 -6.51181,-4.75 -5.82006,0 -5.82006,0 -9.34851,8.25 -6.5759,15.37538 -9.68852,29.85431 -9.72203,45.22377 -0.0189,8.67618 -3.42767,23.94805 -6.93595,31.07438 -1.66141,3.3748 -4.94003,8.31594 -7.28582,10.98033 -4.26509,4.84433 -4.26509,4.84433 -4.60022,40.47157 -0.21076,22.40495 0.0599,37.76438 0.72938,41.38573 0.58549,3.16717 2.8738,9.77665 5.08513,14.68773 2.21134,4.91107 4.02062,10.24647 4.02062,11.85643 0,5.99034 -0.40153,6.07006 -30.57143,6.07006 -26.09524,0 -27.52579,-0.0972 -29.42857,-2 -1.46929,-1.46929 -2,-3.33333 -2,-7.02475 0,-4.31743 -0.32251,-5.14737 -2.2911,-5.89583 -5.28051,-2.00764 -5.31244,-2.3689 -2.37876,-26.91061 3.44903,-28.85293 3.46548,-36.54698 0.10091,-47.19772 -2.12185,-6.71687 -2.86151,-8.01566 -4.25,-7.46277 -0.92458,0.36816 -6.63105,1.82462 -12.68105,3.23659 -9.52721,2.22348 -13.41002,2.57978 -29,2.66115 -9.9,0.0517 -20.54514,-0.24251 -23.65586,-0.65373 -5.65585,-0.74767 -5.65585,-0.74767 -8.74146,4.71972 -1.69708,3.00707 -5.60909,7.99088 -8.69335,11.07514 -6.49732,6.49733 -6.62833,3.26141 1.25308,30.95281 4.73616,16.64056 8.27181,25.56603 12.7214,32.1142 3.22492,4.7459 3.30311,7.39185 0.30174,10.21149 -2.15053,2.02031 -3.31372,2.17431 -16.42328,2.17431 -13.65367,0 -14.2063,-0.082 -17.13068,-2.54273 -2.18125,-1.8354 -3.20433,-3.75953 -3.67782,-6.91696 -0.53265,-3.55196 -1.11929,-4.49053 -3.12076,-4.99287 -3.4469,-0.86511 -4.66353,-4.47895 -7.73904,-22.98769 -2.82127,-16.97872 -5.19792,-26.55975 -6.58833,-26.55975 -0.46885,0 -2.93329,-1.58835 -5.47655,-3.52966 -2.54326,-1.94131 -5.0405,-3.27231 -5.54942,-2.95777 -1.89057,1.16843 -3.22643,9.28397 -3.12543,18.98743 0.12944,12.43676 2.43475,26.01009 5.76533,33.94548 4.39831,10.47931 4.82566,12.28194 3.56673,15.04499 -1.14129,2.50485 -1.16908,2.50947 -14.91486,2.47912 -7.57429,-0.0167 -14.55895,-0.48909 -15.52146,-1.0497 z m 16.25002,-10.40478 c 0,-0.26669 -1.07231,-4.20419 -2.38291,-8.75 -4.85204,-16.82922 -5.8458,-40.30913 -2.14647,-50.71546 1.9562,-5.50288 3.50168,-7.25249 10.79122,-12.21654 16.97291,-11.55826 32.53229,-31.33941 38.15378,-48.50615 0.9317,-2.84517 2.34571,-5.71392 3.14226,-6.375 2.05447,-1.70505 6.33395,-1.4887 8.2392,0.41655 1.39324,1.39324 1.46036,2.37252 0.48223,7.03575 -0.62495,2.97948 -2.70464,8.81175 -4.62153,12.96061 -3.48525,7.54337 -3.48525,7.54337 2.17849,9.2053 16.92528,4.96647 24.03299,5.89412 44.66373,5.82924 18.35749,-0.0577 20.81247,-0.28028 29.89297,-2.70982 13.1838,-3.5274 14.60703,-4.5256 14.60703,-10.24476 0,-10.11578 5.50521,-15.39417 10.66949,-10.22989 2.40299,2.40299 2.44886,2.70775 1.48763,9.88226 -1.09329,8.16013 -0.57495,12.47999 2.92811,24.4028 3.02527,10.29662 3.03929,25.39793 0.0448,48.26779 -2.48215,18.95704 -2.49587,19.23221 -0.95877,19.23221 2.84829,0 4.82874,3.34467 4.82874,8.15499 0,4.84501 0,4.84501 6.5,4.84501 7.44234,0 7.29744,0.28214 4.63552,-9.02611 -6.47948,-22.65755 -4.78367,-46.79746 4.36103,-62.07943 2.99341,-5.00236 5.08697,-10.2029 6.58744,-16.36363 2.85862,-11.73705 3.90967,-13.67539 11.94614,-22.03083 10.96073,-11.39577 12.35735,-15.44255 14.49493,-42 1.48707,-18.47539 3.55666,-28.05527 8.88364,-41.12135 4.65237,-11.41137 8.23579,-17.29299 11.2293,-18.43112 3.45523,-1.31367 22.73216,-1.19163 25.70468,0.16274 3.48489,1.58783 4.56947,4.76697 3.95145,11.58262 -0.80698,8.89951 3.31086,17.50012 10.04644,20.98323 1.56491,0.80924 3.0082,1.30844 3.20731,1.10934 0.19911,-0.19911 -0.27296,-2.1448 -1.04904,-4.32374 -0.77608,-2.17895 -1.43081,-7.64156 -1.45495,-12.13914 -0.0412,-7.66789 0.12029,-8.30656 2.59097,-10.25 1.96246,-1.54367 4.08282,-2.07258 8.30887,-2.07258 3.51392,0 6.413,-0.57101 7.61514,-1.49989 1.8863,-1.45751 1.85638,-1.56314 -1.05887,-3.73908 -6.1445,-4.58625 -7.63948,-6.63643 -7.31212,-10.02769 0.43016,-4.45618 3.45562,-4.68982 10.34938,-0.79922 6.11194,3.44937 6.42449,3.13151 4.36016,-4.43412 -0.87972,-3.22409 -4.05333,-6.90966 -16.36072,-19 -10.45839,-10.27394 -17.54766,-18.2528 -22.50057,-25.32404 -3.9772,-5.67822 -8.56771,-11.13677 -10.20113,-12.13011 -7.47117,-4.54349 -18.06743,-3.15592 -29.73507,3.89377 -4.26823,2.57891 -7.72446,4.0347 -8.69483,3.66234 -2.66018,-1.02081 -39.63583,-0.77123 -40.68165,0.27459 -1.5079,1.5079 7.82666,10.76541 13.65201,13.5393 3.12487,1.48799 7.96664,2.7043 12.40796,3.11702 13.02443,1.21032 13.22561,3.8725 1.46658,19.40716 -21.48319,28.38108 -37.53445,38.41648 -67.22377,42.02893 -14.53988,1.76913 -45.94387,1.26591 -65.73726,-1.0534 -21.80694,-2.55524 -36.59455,-2.23455 -46.28897,1.00386 -9.14614,3.05525 -19.94634,3.72685 -27.74855,1.72551 -8.71871,-2.23642 -13.76263,-5.03705 -20.29727,-11.27004 -3.09925,-2.95619 -5.991,-5.37489 -6.4261,-5.37489 -0.4351,0 -0.57673,3.34024 -0.31473,7.42275 0.8913,13.88831 8.40112,24.31742 19.11166,26.54092 3.03671,0.63042 6.11567,1.86239 6.84212,2.73771 0.92312,1.11229 1.49832,6.74131 1.91036,18.69505 0.4977,14.439 1.03114,18.73937 3.42407,27.60357 2.23228,8.26912 2.83167,12.62465 2.82113,20.5 -0.0168,12.5364 -2.07832,19.24265 -9.87862,32.13522 -5.69797,9.4178 -5.69797,9.4178 -5.05522,17.64129 0.35351,4.52292 0.91937,16.64931 1.25746,26.94752 0.55845,17.01038 0.78342,18.77759 2.45812,19.30911 2.75165,0.87334 5.89557,5.37148 5.89557,8.43505 0,1.48416 0.3,2.99848 0.66667,3.36514 0.75787,0.75788 9.33333,0.9249 9.33333,0.18178 z M 400.48801,176.73876 c -3.26603,-3.26602 -3.15545,-6.84896 0.29514,-9.56319 3.55006,-2.79249 8.82408,-2.11578 12.00031,1.53974 2.78196,3.20176 2.81121,4.49482 0.17742,7.84314 -2.84028,3.61083 -8.95398,3.69921 -12.47287,0.18031 z M 225.03346,426.16007 c 0,-0.56829 -1.10643,-3.21668 -2.45874,-5.88533 -1.3523,-2.66864 -5.2276,-14.46618 -8.61178,-26.21675 -3.38418,-11.75058 -6.23084,-21.45528 -6.32592,-21.566 -0.4426,-0.51545 -9.72797,2.32487 -9.76773,2.98786 -0.0248,0.41417 0.87005,5.80663 1.98863,11.98325 1.11859,6.17662 2.57319,14.30241 3.23245,18.05732 1.10375,6.28659 1.4641,6.9537 4.55138,8.42592 3.35454,1.59967 5.74623,6.06027 5.3444,9.96755 -0.10065,0.97868 -0.13118,2.11692 -0.0678,2.52942 0.18008,1.17317 12.11511,0.89414 12.11511,-0.28324 z m 138.50517,-0.71676 c -6.33461,-15.63967 -7.41475,-23.1185 -7.47149,-51.73213 -0.0337,-16.98214 -0.0337,-16.98214 -2.65183,-13.12918 -4.65852,6.85563 -6.59184,14.11623 -7.1445,26.8312 -0.55085,12.67332 0.34051,19.15668 4.40361,32.03011 2.44605,7.75 2.44605,7.75 8.00954,7.75 4.90191,0 5.47919,-0.2081 4.85467,-1.75 z M 203.67812,361.09449 c 3.77044,-1.15435 8.34861,-3.22572 10.17371,-4.60304 3.56391,-2.68951 9.18163,-9.87009 9.18163,-11.73596 0,-0.62575 -3.65311,-2.33535 -8.11803,-3.79909 -8.11804,-2.66136 -8.11804,-2.66136 -18.87443,8.31903 -10.44298,10.66044 -10.69529,11.02318 -8.65946,12.44913 2.9135,2.0407 8.24659,1.83451 16.29658,-0.63007 z M 396.91067,129.61521 c 2.81754,-0.37376 5.12279,-0.89798 5.12279,-1.16494 0,-0.26696 -2.28292,-3.12059 -5.07315,-6.34139 -17.66595,-20.39208 -44.5339,-29.282118 -69.33084,-22.940127 -6.86782,1.756497 -20.19898,7.754917 -19.27915,8.674757 0.1939,0.19389 3.87391,-0.54808 8.1778,-1.64883 8.6383,-2.20931 20.98077,-2.61802 29.61452,-0.98066 12.44466,2.36008 24.2549,10.63587 32.00879,22.42954 4.12035,6.26705 4.12035,6.26705 8.8784,4.45913 2.61693,-0.99435 7.06331,-2.11372 9.88084,-2.48748 z" />
    <path
       id="path20"
       style="fill:#2d5016"
       d="m 689.53346,438.2847 c -6.46359,-0.81056 -7.2724,-1.39313 -9.65118,-6.95156 -1.09211,-2.5519 -3.98091,-7.56483 -6.41956,-11.13983 -5.19473,-7.61535 -6.3163,-12.06496 -9.57835,-38 -1.2106,-9.625 -2.31716,-17.65735 -2.459,-17.84966 -0.14185,-0.19232 -1.81996,0.16585 -3.72913,0.79594 -3.47122,1.1456 -3.47122,1.1456 -4.15869,12.34966 -0.37811,6.16223 -0.75871,15.92906 -0.84578,21.70406 -0.15831,10.5 -0.15831,10.5 5.34169,20.74282 5.5,10.24283 5.5,10.24283 3.49955,14 -2.00044,3.75718 -2.00044,3.75718 -16.16293,4.03411 -17.21116,0.33653 -16.90642,0.52356 -23.86647,-14.64793 -4.75779,-10.37101 -4.75779,-10.37101 -4.09077,-21 0.36686,-5.84595 1.08064,-20.079 1.58619,-31.629 0.65405,-14.94302 1.51264,-23.53491 2.9768,-29.78873 1.1317,-4.83379 2.05763,-11.8148 2.05763,-15.51334 0,-6.05813 -0.35506,-7.25186 -3.58237,-12.04414 -3.78062,-5.61389 -6.71308,-13.02415 -7.87453,-19.89869 -0.8518,-5.04178 0.91708,-17.39583 3.59114,-25.08083 1.90937,-5.48737 1.91875,-5.94275 0.28458,-13.82523 -3.8538,-18.58892 2.971,-34.60447 20.0395,-47.02612 3.32292,-2.41826 8.60296,-5.33094 11.7334,-6.47262 4.31642,-1.57421 6.29399,-2.98587 8.18421,-5.84218 3.35903,-5.07584 10.02537,-10.38686 17.10679,-13.62884 11.60101,-5.31112 31.77904,-4.14036 45.18488,2.62168 5.68797,2.86907 5.68797,2.86907 12.04835,-0.50623 8.75836,-4.64783 19.45251,-6.89522 29.67649,-6.23654 9.25555,0.59628 15.83967,2.82467 23.41075,7.92333 5.27687,3.55366 5.27687,3.55366 11.48684,1.03273 4.63063,-1.87979 8.66859,-2.64208 15.87726,-2.9973 8.80065,-0.43367 9.7183,-0.66646 10.23634,-2.59666 1.01675,-3.78838 0.65126,-4.38741 -3.10712,-5.09249 -5.0109,-0.94005 -10.82536,-4.01705 -12.73043,-6.73692 -2.13694,-3.05091 -1.96162,-8.62991 0.39252,-12.49083 2.43085,-3.98671 10.96418,-10.83135 21.95532,-17.61049 5.48991,-3.38608 9.63838,-6.82812 11.93734,-9.90457 4.18949,-5.60636 9.87082,-9.8708 17.25199,-12.94944 4.53634,-1.89208 7.2302,-2.2505 16.89675,-2.24811 9.61221,0.002 12.44424,0.37671 17.25209,2.28033 8.27114,3.27489 14.6221,8.74542 23.06579,19.8682 7.2207,9.51176 10.85655,13.23508 25.28836,25.89676 4.66494,4.09276 8.05514,8.13095 10.19193,12.13997 2.87191,5.38826 3.20082,6.86869 3.19206,14.36728 -0.011,9.44887 -2.46379,16.23118 -7.61375,21.05348 -4.42805,4.14632 -13.37862,7.78861 -20.85551,8.48681 -6.18523,0.57759 -6.62952,0.77722 -6.05699,2.72152 1.43218,4.86366 1.77839,25.90313 0.57155,34.73426 -1.56336,11.44009 -3.91224,18.36607 -9.27697,27.35433 -2.63448,4.41391 -5.00916,10.25252 -6.41274,15.76696 -2.60037,10.21645 -6.15277,17.19731 -12.1416,23.85954 -4.45548,4.95648 -6.54201,10.02738 -13.32466,32.38312 -2.58063,8.50579 -3.2534,13.13785 -4.50253,31 -1.46856,21 -1.46856,21 4.16457,32.18156 5.26773,10.45625 5.54638,11.36111 4.29577,13.94955 -0.73555,1.52239 -2.84197,3.6442 -4.68092,4.71512 -3.07904,1.79311 -5.20843,1.93511 -26.917,1.79498 -27.67586,-0.17865 -28.3921,-0.3812 -31.84929,-9.00679 -1.16042,-2.8952 -3.08158,-6.57834 -4.26926,-8.18477 -3.67501,-4.97071 -4.01534,-7.18292 -4.67324,-30.37737 -0.63893,-22.52526 -0.63893,-22.52526 -5.35191,-36.39164 -4.63948,-13.65017 -4.75104,-13.85153 -7.15436,-12.9138 -21.9892,8.57972 -43.6748,9.86131 -69.9707,4.13516 -2.13115,-0.46408 -2.78611,-0.0123 -4.16059,2.87003 -2.50286,5.24855 -12.36998,15.33376 -19.01503,19.43532 -5.61774,3.46747 -5.93018,3.86184 -5.33805,6.73784 0.34591,1.68015 1.52816,8.90481 2.62721,16.05481 2.69161,17.51054 3.22991,19.2393 8.95431,28.75709 5.74136,9.54598 6.31225,13.48302 2.50691,17.28836 -2.21733,2.21734 -3.20789,2.44094 -10.25,2.31375 -4.2875,-0.0774 -10.04545,-0.42295 -12.79545,-0.76781 z m -44.77485,-18.84139 c -3.87115,-7.75 -3.87115,-7.75 -3.25667,-29.25 0.33796,-11.825 1.02225,-23.3 1.52065,-25.5 1.08972,-4.81026 3.02453,-6.4801 15.06279,-13 15.18088,-8.22194 30.34747,-23.93229 39.76401,-41.18965 3.0743,-5.63415 4.20355,-6.86647 6.53852,-7.13531 3.24233,-0.3733 6.64555,2.18974 6.64555,5.00491 0,1.02849 -1.60388,5.05486 -3.56418,8.9475 -1.9603,3.89263 -3.40408,7.23762 -3.20839,7.43331 1.12945,1.12945 20.04173,7.78291 27.02644,9.50807 10.31994,2.54892 29.78198,3.56749 39.40164,2.06211 8.17171,-1.27878 22.80448,-6.02476 27.96725,-9.07087 6.75469,-3.98536 10.67023,-1.86931 12.39431,6.69817 0.63549,3.15797 3.12656,11.63421 5.53571,18.83609 4.38028,13.09432 4.38028,13.09432 4.49556,32 0.13672,22.42045 0.74651,26.53833 4.51192,30.46857 1.81746,1.89702 3.00369,4.42365 3.37182,7.18187 0.56792,4.25523 0.56792,4.25523 7.81792,4.54904 3.9875,0.16159 7.25,0.006 7.25,-0.34563 0,-0.35169 -0.91455,-1.9238 -2.03233,-3.49358 -1.11778,-1.56978 -3.23883,-5.46425 -4.71345,-8.65437 -2.62274,-5.67391 -2.68983,-6.31469 -3.08038,-29.42327 -0.39925,-23.62303 -0.39925,-23.62303 6.04119,-30.64107 4.30525,-4.69134 8.07233,-10.24785 11.36271,-16.76017 4.92226,-9.74214 4.92226,-9.74214 11.92226,-12.43779 20.07965,-7.73252 26.11078,-14.65892 30.47353,-34.99711 1.71983,-8.01748 2.55326,-9.99884 5.46824,-13 4.0399,-4.15932 5.23004,-6.972 7.14202,-16.87879 2.04519,-10.597 1.77661,-24.24298 -0.72551,-36.86127 -3.60425,-18.1764 -3.24917,-18.82368 9.80072,-17.86576 10.18064,0.74731 15.52121,-0.21571 19.78177,-3.56707 3.03567,-2.38786 2.64183,-3.12114 -2.56985,-4.78477 -4.78694,-1.52805 -7.10115,-4.20476 -6.69588,-7.74473 0.28413,-2.48177 0.79116,-2.87713 4.03516,-3.14642 2.04061,-0.1694 5.39031,0.1559 7.44377,0.72289 2.05347,0.56699 3.90095,0.86351 4.10553,0.65894 0.20457,-0.20458 -0.13521,-2.25542 -0.75508,-4.55744 -1.21006,-4.4938 -4.5027,-8.11399 -20.63907,-22.69224 -4.97732,-4.4967 -12.37325,-12.55915 -16.43539,-17.91654 -10.86618,-14.33094 -17.57517,-17.95108 -31.89396,-17.20984 -10.64913,0.55128 -17.54862,4.02117 -23.57934,11.85854 -2.62387,3.40992 -6.54298,7.04173 -9.25403,8.57564 -9.46599,5.35584 -16.83357,10.39205 -20.03531,13.69541 -3.27946,3.38354 -3.27946,3.38354 0.0266,4.76052 4.31575,1.79752 16.84536,1.53021 23.30607,-0.4972 9.04458,-2.83826 11.5,-1.99102 11.5,3.96804 0,2.94717 -2.60575,4.69128 -10.5,7.02799 -3.3,0.97681 -6.5091,2.2569 -7.13134,2.84465 -0.62224,0.58774 -2.10403,4.05384 -3.29286,7.70243 -3.11734,9.56724 -4.3967,10.43092 -14.92043,10.07257 -9.48436,-0.32296 -15.86576,0.85512 -24.0298,4.43619 -7.07387,3.10288 -8.16476,3.00208 -13.22017,-1.2216 -2.3561,-1.96847 -6.56118,-4.78097 -9.34461,-6.25 -4.52478,-2.38807 -6.13853,-2.67096 -15.2366,-2.67096 -10.17582,0 -10.17582,0 -20.5,5.26606 -5.6783,2.89633 -10.86466,5.25883 -11.52526,5.25 -0.66059,-0.009 -4.26059,-1.60764 -8,-3.5529 -17.73209,-9.22434 -35.49905,-8.60996 -46.11916,1.5948 -2.32932,2.23823 -5.3299,5.80372 -6.66795,7.92333 -1.96458,3.1121 -3.45086,4.15065 -7.72231,5.39604 -10.19595,2.97275 -20.61407,11.50591 -24.94278,20.42986 -3.08371,6.35729 -3.56978,15.35193 -1.30211,24.09507 1.7801,6.86323 1.7801,6.86323 -0.87047,13.23048 -6.83303,16.41444 -6.15721,25.05725 3.07707,39.35193 4.51206,6.98467 4.51206,6.98467 3.94699,17 -0.31079,5.50843 -1.4467,14.06533 -2.52424,19.01533 -1.27118,5.83957 -2.17332,14.97273 -2.56905,26.00863 -0.33545,9.35474 -1.07738,21.94239 -1.64874,27.97255 -1.03884,10.96393 -1.03884,10.96393 3.25249,19.69927 4.29134,8.73534 4.29134,8.73534 10.33949,8.77744 6.04815,0.0421 6.04815,0.0421 2.177,-7.70789 z M 880.26242,165.52402 c -0.69907,-0.28127 -1.97935,-1.88113 -2.84507,-3.55524 -1.46842,-2.83962 -1.4434,-3.21934 0.37296,-5.65965 2.35872,-3.16899 7.61509,-4.27496 11.46351,-2.412 7.8293,3.79005 5.38877,12.3818 -3.47036,12.21723 -2.3375,-0.0434 -4.82197,-0.30907 -5.52104,-0.59034 z M 698.96741,423.44331 c -5.82039,-9.64234 -6.05577,-10.53877 -11.0111,-41.93443 -2.1319,-13.50717 -2.15656,-14.30994 -0.51639,-16.81316 0.94733,-1.4458 3.63848,-3.45005 5.98035,-4.45389 4.84783,-2.07802 15.22034,-11.31027 17.92439,-15.95394 1.74827,-3.0023 1.74827,-3.13284 0,-3.75687 -0.99616,-0.35558 -4.58588,-1.88165 -7.97715,-3.39128 -6.16596,-2.74478 -6.16596,-2.74478 -18.59169,9.41342 -12.42574,12.1582 -12.42574,12.1582 -8.66467,36.35749 2.06859,13.30961 4.03024,25.04734 4.35921,26.08385 0.32897,1.0365 2.3432,4.22347 4.47606,7.08215 2.13286,2.85867 4.42957,6.52938 5.1038,8.15712 1.12616,2.7188 1.63076,2.95954 6.20334,2.95954 4.97745,0 4.97745,0 2.71385,-3.75 z m 169.86283,3 c -0.20344,-0.4125 -2.07756,-4.125 -4.1647,-8.25 -3.79481,-7.5 -3.79481,-7.5 -3.15547,-23.5 1.05302,-26.35292 1.94527,-32.82144 6.42614,-46.5876 2.25349,-6.92318 4.09725,-12.86227 4.09725,-13.19798 0,-0.33571 -1.36911,-0.13311 -3.04246,0.45023 -2.30403,0.80319 -3.78889,2.55018 -6.1179,7.19798 -3.41935,6.82366 -10.46389,17.11364 -13.72103,20.04236 -1.94252,1.74665 -2.11438,2.91029 -2.0677,14 0.0911,21.65258 1.32512,32.42221 4.42356,38.60713 1.51208,3.01833 3.84681,6.95038 5.18828,8.73788 2.18614,2.91302 2.96083,3.25 7.47147,3.25 2.76785,0 4.866,-0.3375 4.66256,-0.75 z" />
    <path
       id="path15"
       style="fill:#2d5016"
       d="m 147.90808,857.88812 c -5.84396,-2.30714 -11.35646,-4.81241 -12.25,-5.56725 -2.55176,-2.15568 -2.01755,-6.89518 1.12538,-9.98447 2.22059,-2.18269 55.31691,-49.59895 69.14418,-61.74739 3.53329,-3.10429 3.53329,-3.10429 -5.93044,-3.8363 -10.36339,-0.8016 -12.97866,-2.10792 -12.94176,-6.46439 0.0161,-1.90518 6.54668,-10.43701 24.56658,-32.09501 37.83216,-45.47022 46.19252,-54.4664 72.71718,-78.24739 9.79316,-8.78017 18.87694,-17.6039 20.18619,-19.60828 1.30925,-2.00438 3.71365,-7.02896 5.34312,-11.16574 10.02071,-25.43994 27.26854,-39.76656 51.16495,-42.49932 7.24134,-0.82811 17.95337,1.45948 26.11701,5.57738 7.8275,3.94835 17.22907,13.36628 21.38299,21.42022 3.45803,6.70469 4.71137,7.28045 22,10.10641 11.77828,1.92526 14.5,3.30505 14.5,7.35088 0,4.89648 -7.87862,10.10372 -22,14.54053 -5.5,1.72805 -5.5,1.72805 -5.16257,11.87668 0.66832,20.10087 -2.97713,46.20781 -8.95741,64.14863 -13.48301,40.44901 -39.57656,68.46682 -72.13002,77.44926 -2.6125,0.72086 -4.75,1.52116 -4.75,1.77844 0,1.35214 21.62179,30.75124 25.38089,34.51033 1.14094,1.14094 6.86896,1.35508 31.49818,1.17754 28.63242,-0.2064 30.22625,-0.12057 32.61229,1.75629 3.03607,2.38817 3.19981,4.89266 0.48077,7.35336 -1.93677,1.75276 -6.05603,1.83176 -91.70669,1.75883 -89.67884,-0.0763 -89.67884,-0.0763 -91.37947,-2.17655 -1.83488,-2.26597 -1.51977,-5.3366 0.7401,-7.21213 0.98716,-0.81927 11.37479,-1.31392 34.64193,-1.64961 18.2776,-0.26371 33.40847,-0.64086 33.62416,-0.83811 0.21569,-0.19725 -1.90167,-3.85717 -4.70524,-8.13315 -2.80357,-4.27597 -6.70617,-11.262 -8.67245,-15.5245 -3.57503,-7.75 -3.57503,-7.75 -9.29475,-7.75402 -6.94513,-0.005 -21.80736,-2.3386 -30.97577,-4.86392 -6.74395,-1.85753 -6.74395,-1.85753 -19.24395,7.70528 -11.26013,8.61427 -26.31768,20.6189 -58.26888,46.45487 -12.92871,10.45425 -13.36082,10.52018 -28.8565,4.4026 z m 37.81758,-25.33521 c 28.74151,-23.48991 52.10052,-41.68393 56.31623,-43.86396 3.58769,-1.85526 4.81995,-1.76901 18.99157,1.32936 47.69774,10.42825 89.57298,0.56935 112.53257,-26.49412 23.51727,-27.72082 34.84397,-64.33586 33.18061,-107.26063 -0.86476,-22.31605 -5.20842,-36.33998 -14.24938,-46.0055 -9.09049,-9.71847 -21.7279,-14.28537 -33.70969,-12.18201 -9.05243,1.58913 -17.96596,6.3574 -25.20749,13.4847 -6.23135,6.13305 -6.76106,7.03745 -17.48004,29.84463 -3.3001,7.02174 -5.01794,8.7827 -35.06658,35.94679 -5.775,5.22062 -15.6259,15.08309 -21.8909,21.91659 -11.29656,12.32165 -56.1091,65.33833 -56.1091,66.38137 0,1.18354 17.3782,0.42999 33.11258,-1.43583 43.354,-5.141 70.12246,-13.38559 91.54642,-28.19596 18.16574,-12.55797 27.341,-29.01347 27.341,-49.03513 0,-6.45657 0.34232,-8.13222 2,-9.7899 1.1,-1.1 2.675,-2 3.5,-2 0.825,0 2.4,0.9 3.5,2 1.62133,1.62133 2,3.33333 2,9.04216 0,27.89535 -14.67831,49.63973 -45.06373,66.75718 -16.81427,9.47222 -47.94291,17.74303 -81.44442,21.63959 -13.28113,1.54473 -6.85317,-2.94896 -49.41539,34.54554 -13.43295,11.83354 -28.36381,24.89053 -33.1797,29.01553 -4.81588,4.125 -8.78779,7.75086 -8.82645,8.05746 -0.0721,0.57197 11.4794,4.68532 13.62189,4.85058 0.65571,0.0506 11.45571,-8.29622 24,-18.54844 z M 368.35464,639.00458 c -2.76259,-1.33561 -4.71628,-5.96405 -3.79368,-8.98755 1.28577,-4.21368 3.51265,-5.82372 8.05491,-5.82372 3.4245,0 4.68376,0.52293 6.34501,2.63486 2.87205,3.65122 2.59998,6.99159 -0.8505,10.44206 -3.0349,3.0349 -5.98195,3.55882 -9.75574,1.73435 z m -25.49716,196.68813 c 0.33116,-0.32102 -20.02925,-28.97149 -22.21811,-31.26456 -0.90407,-0.94712 -3.26449,-1.07281 -9.38947,-0.5 -8.18181,0.76516 -8.18181,0.76516 -5.74093,6.02422 1.34248,2.89248 3.74995,7.16748 5.34993,9.5 1.59998,2.33252 4.17067,6.71594 5.71264,9.74094 1.54197,3.025 3.13764,5.95 3.54594,6.5 0.65277,0.87933 21.83286,0.87877 22.74,-6e-4 z m 78.53109,-201.36964 c 1.51089,-0.59428 1.14922,-0.94632 -1.94914,-1.89724 -4.29404,-1.31788 -4.71246,-1.1948 -3.82252,1.12435 0.66248,1.72638 2.66555,1.99462 5.77166,0.77289 z" />
    <path
       id="path8"
       style="fill:#2d5016"
       d="m 1052.4839,893.7867 c -8.5552,-3.7264 -10.2163,-10.0803 -11.0525,-42.27716 -0.6539,-25.17963 0.4453,-43.13125 2.9639,-48.40606 0.9427,-1.9744 5.2958,-8.0494 9.6734,-13.5 8.1652,-10.16654 13.5381,-19.26055 16.3621,-27.69404 1.572,-4.69437 6.9261,-33.72603 6.3299,-34.32227 -0.1671,-0.16707 -2.0865,0.33122 -4.2655,1.1073 -4.7217,1.68176 -12.2388,1.89928 -16.1466,0.46723 -1.5483,-0.56739 -3.7963,-2.223 -4.9955,-3.67914 -2.0585,-2.49956 -2.4004,-2.58162 -6.116,-1.46839 -9.0768,2.71948 -18.5791,0.0467 -22.309,-6.27494 -1.857,-3.14732 -2.5588,-3.54839 -6.2434,-3.56788 -9.2164,-0.0488 -15.8015,-5.77773 -17.26949,-15.02422 -0.3889,-2.4496 -2.18335,-6.60463 -3.98761,-9.23341 -1.89766,-2.76485 -3.57112,-6.71779 -3.96999,-9.37764 -0.9099,-6.06764 0.095,-16.25613 2.0694,-20.98157 3.91856,-9.37843 7.57119,-9.69044 16.91199,-1.44462 3.6862,3.25413 10.3003,7.78854 14.698,10.07648 18.2032,9.47034 33.3616,12.46822 59.7182,11.81048 17.6783,-0.44118 17.6783,-0.44118 23.1783,-3.98559 12.644,-8.14827 25.8009,-12.93264 42.5,-15.45463 8.0753,-1.21958 15.3892,-1.37689 38,-0.81733 30.6026,0.75733 38.7699,-0.03 52.0102,-5.01359 11.8399,-4.45655 23.972,-13.70769 29.9588,-22.84471 1.6598,-2.53321 1.6757,-2.86376 0.191,-3.97532 -3.9556,-2.96141 -6.66,-8.10498 -6.6547,-12.65665 0.01,-4.84582 0.921,-6.67487 7.6379,-15.26008 2.2787,-2.9126 5.5996,-8.82265 7.3798,-13.13345 2.5826,-6.25381 4.0694,-8.44086 7.3569,-10.82182 2.266,-1.6412 5.8455,-5.08919 7.9543,-7.66219 8.7196,-10.63907 20.1541,-15.57704 36.1658,-15.61818 22.5952,-0.058 37.8984,8.1182 46.6921,24.9469 6.0756,11.62681 8.8098,13.25557 23.7218,14.13094 12.7213,0.74677 16.4194,1.78112 19.5131,5.45777 6.9836,8.29956 -0.065,29.41041 -12.3743,37.06239 -4.8155,2.99353 -4.8155,2.99353 -1.4802,8.53247 6.7207,11.16082 6.7981,21.2956 0.2049,26.84341 -2.7442,2.3091 -3.8586,2.61669 -8.0287,2.21599 -3.581,-0.34409 -5.6293,-1.21857 -7.8641,-3.35757 -2.9891,-2.86085 -3.1326,-2.88851 -13.2033,-2.54407 -8.3927,0.28705 -11.2292,-0.0204 -16.1466,-1.75 -3.281,-1.15403 -6.0849,-2.09823 -6.2309,-2.09823 -0.7134,0 1.1866,10.81085 3.8913,22.14196 2.6907,11.27244 2.8696,12.95158 1.6519,15.5 -0.7512,1.57192 -2.2722,2.9885 -3.3802,3.14795 -1.8973,0.27306 -1.9926,0.88327 -1.6403,10.5 0.6402,17.471 -3.8257,36.12017 -8.8311,36.87844 -1.7962,0.2721 -2.7807,2.07799 -5.4833,10.05768 -4.2218,12.46559 -7.4279,17.8516 -15.0447,25.27397 -6.1571,6 -6.1571,6 -8.8117,22.5 -3.7292,23.17996 -4.8275,34.11802 -4.4676,44.4951 0.3119,8.99511 0.3119,8.99511 6.6351,12.1445 7.9699,3.96949 10.696,6.53459 12.8001,12.04399 2.1828,5.7156 0.7653,10.89 -4.1705,15.2237 -3.5224,3.0927 -3.5224,3.0927 -34.0865,3.0927 -34.4187,0 -35.2939,-0.1564 -40.4124,-7.2224 -4.0161,-5.544 -11.1816,-36.9144 -13.4852,-59.03809 -0.5529,-5.31012 -1.3272,-7.54474 -3.6089,-10.41594 -1.5978,-2.01049 -3.194,-4.80711 -3.5473,-6.2147 -0.5722,-2.27962 0.6711,-12.04114 2.2555,-17.70952 0.5569,-1.99246 0.1081,-2.13683 -8.7129,-2.80273 -10.6318,-0.80259 -26.3687,-3.68882 -35.8034,-6.56653 -3.5466,-1.08175 -6.5368,-1.86855 -6.6449,-1.74845 -0.1081,0.1201 -0.8978,1.91031 -1.7548,3.97824 -4.4799,10.8098 -16.8962,25.02523 -31.3408,35.88201 -5.1211,3.84916 -9.3112,7.42196 -9.3112,7.93956 0,1.23258 6.7096,23.58592 8.1869,27.275 0.7497,1.87202 2.5542,3.46095 5.236,4.61052 8.3662,3.58613 14.4998,11.30423 14.5551,18.31513 0.035,4.4894 -2.6091,9.5196 -6.1678,11.7317 -3.0136,1.8732 -4.6255,2.032 -17.9908,1.7719 -13.0289,-0.2536 -14.9978,-0.5195 -17.5,-2.3638 -4.3549,-3.2098 -7.7387,-10.5312 -12.6743,-27.42189 -9.2013,-31.4893 -10.1301,-37.83078 -7.1701,-48.9535 0.7983,-2.99942 1.312,-5.59281 1.1417,-5.76309 -0.5445,-0.54456 -15.9452,6.75459 -20.8383,9.87631 -2.5969,1.65678 -5.6168,4.4607 -6.7108,6.23093 -2.326,3.7635 -4.74,16.74024 -5.2259,28.09249 -0.3417,7.98313 -0.3417,7.98313 2.6583,9.37462 12.9351,5.99963 16.5152,22.89393 6.1862,29.19203 -2.7488,1.676 -5.0394,1.9379 -16.6862,1.9073 -8.955,-0.023 -14.5267,-0.4826 -16.5496,-1.3637 z m 28.2482,-11.2502 c 1.1687,-3.0457 -1.9521,-6.7456 -7.151,-8.478 -2.6983,-0.8991 -5.5003,-2.4476 -6.2268,-3.4411 -2.7182,-3.7175 -1.0158,-30.19134 2.7513,-42.78382 2.8917,-9.6663 8.0684,-14.62808 22.4279,-21.49707 15.6874,-7.50417 17.9496,-8.75992 28,-15.54296 17.3914,-11.73747 33.4745,-30.01694 39.5792,-44.98411 2.7784,-6.81217 5.698,-9.34092 8.8419,-7.65834 1.1304,0.60497 2.3128,2.12616 2.6276,3.38042 0.5968,2.37776 -2.1642,10.40688 -5.819,16.92194 -1.3096,2.33445 -1.753,4.10861 -1.1695,4.67916 1.7951,1.75531 22.9939,9.8973 32.4398,12.45943 8.8488,2.40015 26.8142,5.58191 31.5936,5.59536 1.6857,0.005 3.0709,-2.08857 7.1098,-10.7441 2.7589,-5.9125 5.591,-12.2297 6.2935,-14.03822 2.1311,-5.48579 7.6149,-6.67412 10.0243,-2.17222 1.134,2.11894 -1.3424,10.68354 -5.4568,18.87218 -3.9964,7.95375 -4.0034,8.52776 -0.1206,9.93179 4.8206,1.74312 5.3215,4.3344 2.013,10.41313 -1.9514,3.58533 -2.8849,6.99449 -3.2279,11.78764 -0.4538,6.34288 -0.3339,6.8408 2.0183,8.38202 2.1497,1.40856 2.596,2.65167 3.1791,8.85612 1.7472,18.58995 9.1634,54.91625 12.1384,59.45665 1.4121,2.1551 2.087,2.2609 14.427,2.2609 11.9029,0 12.8947,-0.1409 12.3142,-1.75 -1.4394,-3.9897 -4.8067,-7.5072 -9.1692,-9.5779 -4.483,-2.128 -4.6616,-2.3827 -5.3873,-7.6865 -0.4128,-3.01707 -0.4953,-10.21059 -0.1833,-15.98559 0.9676,-17.90716 4.3733,-49.773 5.6097,-52.48645 0.6473,-1.42063 3.91,-4.21493 7.2505,-6.20955 7.0035,-4.18179 13.3342,-8.97843 19.1682,-14.52344 4.0944,-3.89166 4.0944,-3.89166 7.7944,-0.19163 3.7001,3.70003 3.7001,3.70003 6.7233,0.80555 1.6628,-1.59196 4.5574,-6.04448 6.4324,-9.89448 3.4446,-7.07264 8.4425,-22.92178 8.4707,-26.86187 0.024,-3.39253 1.4498,-4.78663 4.5503,-4.44993 2.4778,0.26909 2.962,-0.0992 3.5345,-2.6882 1.1708,-5.2954 0.8685,-23.78209 -0.5049,-30.88193 -1.253,-6.47719 -1.216,-6.99724 0.6292,-8.84246 1.1375,-1.13746 2.7613,-1.7511 3.8681,-1.46168 2.2882,0.59838 2.2749,0.77384 0.4282,-5.66002 -1.7471,-6.08656 -4.5207,-24.07487 -4.5207,-29.31859 0,-3.78465 2.2637,-7.33532 4.6765,-7.33532 0.7516,0 5.3972,1.575 10.3235,3.5 6.6493,2.59825 10.4439,3.49073 14.7285,3.46402 5.7715,-0.036 5.7715,-0.036 3.2715,-2.09817 -1.375,-1.1342 -5.9587,-4.23412 -10.186,-6.88871 -8.5109,-5.34455 -12.6717,-10.49699 -13.5072,-16.72656 -1.0612,-7.9116 3.9835,-9.07195 18.2556,-4.19899 10.6237,3.62727 20.4854,4.74781 25.9404,2.94749 7.8439,-2.58874 17.2576,-14.6359 13.364,-17.10259 -0.7518,-0.47622 -2.8228,-0.87276 -4.6024,-0.88118 -2.9964,-0.0142 -3.3194,-0.34797 -4.3687,-4.51531 -1.0091,-4.0073 -1.4432,-4.5 -3.9652,-4.5 -4.4148,0 -13.0734,-2.06389 -16.9305,-4.03558 -4.9375,-2.52398 -9.2983,-7.47251 -12.8357,-14.56541 -4.0676,-8.15625 -6.9934,-11.44389 -13.1818,-14.812 -7.2084,-3.92333 -14.1306,-5.56327 -23.4825,-5.56327 -14.1366,0 -23.3694,3.85124 -29.1174,12.14563 -1.5279,2.20479 -4.7317,5.72844 -7.1196,7.83034 -3.0313,2.66825 -5.0744,5.69157 -6.7698,10.01764 -3.1605,8.06463 -6.5718,13.77624 -10.404,17.41974 -1.6991,1.6154 -3.0892,3.52314 -3.0892,4.23941 0,0.71628 2.2576,3.89459 5.0169,7.06291 2.7593,3.16833 7.0935,8.14216 9.6316,11.05296 2.5381,2.9108 5.9151,5.96484 7.5045,6.78675 2.5936,1.34122 3.2484,1.32424 6.3881,-0.16565 1.9241,-0.91302 4.5019,-3.06706 5.7286,-4.78676 2.0105,-2.81863 2.2297,-4.30908 2.2238,-15.12671 0,-6.6 -0.4077,-16.39091 -0.8981,-21.75758 -0.8003,-8.75811 -0.707,-9.96165 0.9115,-11.75 2.226,-2.45971 5.6765,-2.56801 7.7235,-0.24242 1.5534,1.76481 2.0792,6.53579 3.4065,30.90714 0.7747,14.2235 -0.9091,20.45712 -7.2338,26.78185 -8.2809,8.28087 -16.102,9.72238 -25.0147,4.61042 -2.8114,-1.6125 -6.2699,-4.30827 -7.6855,-5.99061 -1.4156,-1.68234 -2.7537,-3.0588 -2.9735,-3.0588 -0.2199,0 -4.4571,4.00748 -9.4162,8.9055 -7.5697,7.47667 -10.5243,9.63001 -18.4148,13.42114 -5.1691,2.4836 -13.4484,5.56363 -18.3984,6.8445 -8.624,2.23156 -10.525,2.32886 -45.5,2.32886 -34.975,0 -36.876,0.0973 -45.5,2.32886 -35.3938,9.15859 -52.0799,30.19182 -58.0482,73.17114 -2.8176,20.29068 -8.7411,33.7083 -22.1192,50.10334 -10.1271,12.41093 -9.7484,10.98486 -10.1597,38.25097 -0.3641,24.13675 0.9824,45.92298 2.9877,48.33918 0.7814,0.9415 4.4113,1.3065 12.9932,1.3065 10.1642,0 12.0021,-0.2427 12.5448,-1.6568 z m 268.5967,-283.40356 c -4.0598,-2.6333 -5.0276,-5.47294 -2.7304,-8.01129 2.8029,-3.09724 8.4449,-2.57135 11.978,1.11648 2.7756,2.89704 2.8438,3.17612 1.4059,5.75 -1.9508,3.49217 -6.312,3.96081 -10.6535,1.14481 z M 1158.8337,881.591 c 0.362,-2.5354 -5.8514,-8.3977 -8.9007,-8.3977 -5.213,0 -8.1403,-4.2008 -11.8465,-16.99999 -1.1945,-4.125 -3.54,-11.6859 -5.2122,-16.80199 -3.9965,-12.22718 -3.7982,-12.6657 10.6988,-23.66372 13.7096,-10.40066 21.981,-19.19052 26.9413,-28.62994 2.038,-3.87825 3.498,-7.25881 3.2444,-7.51235 -0.2535,-0.25353 -3.999,-2.16782 -8.3233,-4.25397 -7.8623,-3.793 -7.8623,-3.793 -17.3822,5.88774 -5.2359,5.32441 -13.0719,12.33428 -17.4134,15.57749 -7.8937,5.89674 -7.8937,5.89674 -10.9831,18.20072 -3.0894,12.30399 -3.0894,12.30399 0.6555,27 5.2561,20.62641 10.4123,36.53361 12.8442,39.62521 2.0511,2.6076 2.1816,2.6299 13.7239,2.3517 10.9755,-0.2646 11.6706,-0.4031 11.9533,-2.3832 z m 164.1998,1.179 c 0,-2.7925 -5.0891,-7.4456 -9.8859,-9.0388 -5.2775,-1.7529 -8.3997,-4.5039 -10.0475,-8.85299 -2.4705,-6.52033 -0.2764,-34.98764 4.9767,-64.56913 1.1119,-6.26133 1.8799,-11.52586 1.7068,-11.69896 -0.1731,-0.1731 -2.2906,1.24889 -4.7056,3.15996 -2.4151,1.91108 -6.7877,4.84595 -9.717,6.52193 -3.2656,1.86841 -5.5041,3.88942 -5.7863,5.22427 -0.8862,4.19181 -3.4879,32.29369 -4.155,44.88023 -0.6732,12.7032 -0.6732,12.7032 5.8199,18.99999 4.9673,4.817 6.8999,7.5306 8.2239,11.5468 1.7307,5.25 1.7307,5.25 12.6504,5.25 8.778,0 10.9196,-0.2791 10.9196,-1.4233 z M 1071.6542,718.13488 c 4.8978,-2.371 10.947,-8.66277 12.9594,-13.47909 0.7622,-1.82415 2.7435,-5.61926 4.4029,-8.43357 1.6593,-2.81431 3.0137,-5.20962 3.0096,-5.32292 0,-0.11329 -6.6416,-0.26326 -14.75,-0.33327 -27.5673,-0.23799 -50.0735,-6.99904 -67.6937,-20.33568 -3.6602,-2.77037 -6.8042,-5.03704 -6.9867,-5.03704 -0.1825,0 -0.6071,2.3625 -0.9437,5.25 -0.8595,7.37454 0.5941,12.35935 4.8856,16.75425 3.4389,3.52171 3.6158,4.01322 2.9773,8.27124 -0.581,3.87403 -0.3579,4.84801 1.5463,6.75224 2.0393,2.03936 2.8365,2.16982 9.5439,1.56201 6.6351,-0.60126 7.4172,-0.47911 8.3736,1.30779 0.5801,1.08404 1.0548,2.90057 1.0548,4.03673 0,6.04322 8.3364,7.85531 16.404,3.56574 2.586,-1.375 5.4301,-2.5 6.3202,-2.5 2.438,0 5.2758,3.01499 5.2758,5.6053 0,4.60569 6.5957,5.73701 13.6207,2.33627 z m 330.1855,-60.12961 c 0.333,-3.99385 -2.062,-9.58563 -6.2244,-14.53242 -2.0825,-2.47486 -3.5064,-3.09404 -8.2978,-3.60819 -3.1812,-0.34137 -8.034,-1.26585 -10.784,-2.0544 -10.9115,-3.12884 -10.3856,-3.13263 -6.8644,0.0494 1.7245,1.55849 5.9389,4.40238 9.3651,6.31978 3.8325,2.1447 8.7827,6.26687 12.8644,10.71261 3.6492,3.97455 7.3099,7.12703 8.1349,7.00552 0.9524,-0.14027 1.6118,-1.5613 1.8062,-3.89234 z" />
    <path
       id="path1"
       style="fill:#2d5016"
       d="m 686.53346,895.1943 c -17.36564,-2.6033 -53.3267,-26.4877 -68.35563,-45.39997 -35.29489,-44.4149 -31.16605,-128.89543 8.5187,-174.30159 9.96256,-11.39889 25.95015,-19.59764 34.6324,-17.76018 5.23808,1.10855 10.49568,4.55182 13.44079,8.80254 2.36464,3.41293 2.75265,4.93981 2.68694,10.57358 -0.10058,8.62298 -2.9073,14.08664 -12.69277,24.70813 -9.03621,9.80821 -14.85466,18.19935 -19.31796,27.85957 -9.23687,19.992 -11.23895,44.84969 -5.35738,66.51693 2.28129,8.40407 10.58324,26.34156 11.83385,25.56864 0.44579,-0.27551 1.08187,-5.57866 1.41352,-11.78478 1.36925,-25.62213 12.05547,-54.20237 28.37068,-75.87722 9.09902,-12.0881 16.85671,-19.28605 28.03227,-26.00967 14.12869,-8.50034 24.59172,-19.48125 27.35707,-28.71116 1.24508,-4.15571 1.16948,-4.47341 -2.86689,-12.04887 -5.67166,-10.64456 -7.60669,-18.6415 -6.81363,-28.15878 0.34473,-4.13702 1.06392,-9.04607 1.59821,-10.90901 0.69465,-2.42211 0.56303,-5.26503 -0.46195,-9.97816 -3.66224,-16.83975 -4.75519,-35.80914 -2.5369,-44.03059 0.68496,-2.53861 2.61535,-5.85707 4.50828,-7.75 4.24008,-4.24008 9.3231,-4.45248 16.73009,-0.69908 4.95506,2.51092 16.23336,12.88923 22.35006,20.56655 2.90477,3.64589 2.97373,3.67032 7.93025,2.80961 6.24577,-1.08459 19.45004,-1.12308 25.82334,-0.0753 4.82335,0.79298 4.82335,0.79298 11.8115,-7.57365 13.65721,-16.35121 26.4019,-23.05588 33.61137,-17.68211 8.45062,6.2989 9.74254,21.22312 4.15444,47.99198 -2.01874,9.67045 -2.04274,10.45059 -0.50959,16.56389 0.88492,3.5285 1.59324,8.41171 1.57405,10.85157 -0.0825,10.49593 -4.06345,25.15205 -10.17804,37.47153 -2.32182,4.67792 -2.38404,5.22442 -1.07768,9.46458 4.66908,15.15474 7.2971,34.47878 7.27229,53.47377 -0.0286,21.91729 -1.68271,30.91672 -12.40422,67.48813 -3.77336,12.87108 -6.98307,30.47386 -8.15044,44.69895 -0.66972,8.16085 -0.66972,8.16085 3.28453,10.65706 10.92413,6.89611 15.17921,19.46611 9.17387,27.10061 -4.6107,5.8616 -5.74128,6.0523 -37.99249,6.4085 -33.27633,0.3676 -36.37641,-0.033 -40.53169,-5.2409 -2.66902,-3.345 -2.66902,-3.345 -5.99624,-0.018 -1.82998,1.8299 -5.02323,3.7982 -7.09611,4.3738 -4.29192,1.1919 -55.89288,1.2395 -63.76889,0.059 z m 62.6983,-11.7993 c 1.81247,-1.8125 0.32437,-5.6177 -3.09618,-7.9173 -2.78992,-1.8757 -4.74401,-2.2844 -10.92126,-2.2844 -8.23343,0 -11.18086,-1.4584 -11.18086,-5.5325 0,-3.01097 2.35288,-4.74655 7.33654,-5.41176 4.01339,-0.5357 4.23149,-0.75398 6.05075,-6.05573 2.7009,-7.87107 3.30738,-25.37894 1.19152,-34.39697 -4.25181,-18.12176 -15.6326,-30.20718 -34.47712,-36.61174 -8.36291,-2.84225 -10.00513,-4.51203 -8.54507,-8.68852 0.80672,-2.30763 1.6486,-2.85817 4.76553,-3.11635 7.66398,-0.63483 21.52778,5.89579 31.1991,14.69649 1.99533,1.81571 3.73932,3.14735 3.87554,2.95919 0.13621,-0.18815 -0.17507,-5.87341 -0.69173,-12.63389 -0.85266,-11.15691 -0.77577,-12.47259 0.83276,-14.25 2.23855,-2.47357 4.92438,-2.49601 7.35891,-0.0615 1.5233,1.5233 2.03217,4.03356 2.58464,12.75 2.13037,33.61126 8.74767,63.36336 20.84324,93.71358 4.11277,10.3197 5.61138,13.045 7.58599,13.7958 2.49928,0.9502 19.47011,1.0049 26.3298,0.085 2.21452,-0.297 3.7596,-1.0523 3.7596,-1.8378 0,-2.1373 -5.98341,-8.354 -10.02498,-10.4159 -5.15257,-2.6286 -5.76145,-5.8247 -6.57709,-34.52316 -0.6914,-24.32737 0.31646,-45.04243 3.10321,-63.78169 1.7248,-11.59833 4.82656,-15.08811 10.02921,-11.28384 1.87892,1.37389 1.88012,1.67781 0.0681,17.25 -2.22004,19.07837 -3.12019,47.75075 -2.12444,67.66971 0.72961,14.59517 0.72961,14.59517 6.10655,18.65478 4.26633,3.2211 6.05262,5.5044 8.6482,11.0542 3.27127,6.9946 3.27127,6.9946 11.27127,6.7337 7.98417,-0.2604 8.00065,-0.2666 8.32647,-3.1151 0.38506,-3.3663 -2.51874,-6.9133 -7.93332,-9.6904 -5.51497,-2.8287 -6.28067,-5.79886 -5.61102,-21.76509 0.67939,-16.19838 3.23027,-30.05352 9.21386,-50.04523 9.15773,-30.59679 10.6055,-38.71696 10.62857,-59.6129 0.0209,-18.92571 -2.52373,-36.57348 -7.27275,-50.43876 -1.0185,-2.9736 -1.85181,-6.39537 -1.85181,-7.60393 0,-1.20855 2.04144,-6.56594 4.53654,-11.90529 2.49509,-5.33936 5.26146,-12.49259 6.14748,-15.89608 2.01578,-7.74325 1.95102,-19.79868 -0.13765,-25.62671 -1.51455,-4.22605 -1.46248,-5.11177 1.08747,-18.5 2.58617,-13.57836 3.80952,-33.42764 2.16273,-35.09109 -2.545,-2.57074 -12.14095,5.0899 -22.53136,17.98723 -3.56354,4.42333 -7.10923,8.40407 -7.87931,8.84609 -0.77007,0.44202 -5.07597,0.2662 -9.56866,-0.39072 -7.81557,-1.14279 -23.49687,-0.80448 -32.05589,0.69156 -4.17459,0.72969 -3.69475,1.12719 -18.37341,-15.22034 -7.96378,-8.86922 -13.54375,-12.63498 -15.62013,-10.5416 -1.88756,1.90302 -1.37768,22.62466 0.84048,34.15743 2.12551,11.05106 2.24487,16.68959 0.56954,26.90434 -1.02257,6.23481 -0.97276,8.34753 0.31539,13.37565 2.22677,8.69193 7.61161,18.20387 15.01146,26.5167 6.63679,7.45561 7.27215,8.88328 5.46014,12.26905 -1.4229,2.65871 -4.78201,2.42252 -9.31046,-0.65464 -2.09544,-1.42389 -3.90529,-2.43639 -4.02188,-2.25 -0.1166,0.1864 -1.0941,2.1239 -2.17223,4.30557 -3.28522,6.64782 -16.9497,19.62386 -26.96025,25.60193 -41.41144,24.73 -64.44857,89.22274 -49.90589,139.71219 3.10626,10.78434 9.75525,24.80064 12.44862,26.24204 1.10635,0.5921 5.48684,1.466 9.73441,1.9421 10.07544,1.1291 58.14626,0.5117 59.42116,-0.7632 z m 30.25368,-206.63463 c -1.86433,-2.84533 -1.2036,-4.5638 3.46196,-9.00415 3.61751,-3.44289 3.78831,-4.51714 1.08606,-6.83088 -2.22197,-1.90251 -2.6684,-6.66363 -0.8,-8.53203 1.47741,-1.47741 13.18587,-1.59904 15.86574,-0.16482 2.56164,1.37095 2.52475,6.12046 -0.0657,8.46482 -2.66486,2.41167 -2.57377,2.85914 1.5,7.36832 3.91025,4.32817 4.38509,7.02071 1.67126,9.47669 -2.52269,2.28301 -6.09981,2.07075 -8.86389,-0.52597 -2.32153,-2.18097 -2.32153,-2.18097 -4.3534,0 -2.80753,3.01353 -7.44289,2.8906 -9.50199,-0.25198 z m -14.542,-34.39101 c -5.24171,-1.60082 -7.56009,-8.37518 -4.40688,-12.87702 3.3298,-4.75395 11.98036,-5.00122 14.4361,-0.41264 3.69712,6.90813 -2.78776,15.5012 -10.02922,13.28966 z m 44.31898,-0.84534 c -1.49347,-0.6009 -4.22896,-5.58441 -4.22896,-7.70432 0,-0.81012 1.165,-2.85747 2.58889,-4.54966 2.15835,-2.56505 3.31043,-3.07673 6.92742,-3.07673 3.49591,0 4.74106,0.51173 6.41111,2.63486 4.49395,5.71313 0.63966,13.43731 -6.62967,13.28619 -2.08876,-0.0434 -4.36972,-0.30907 -5.06879,-0.59034 z m -150.27133,223.3852 c -1.55564,-4.00626 -3.38845,-10.41876 -4.07292,-14.25 -1.09323,-6.11917 -2.01949,-7.99912 -7.62017,-15.46591 -12.34003,-16.45164 -19.56324,-35.32923 -21.10414,-55.15484 -2.56575,-33.01164 6.94801,-60.45628 29.4556,-84.9715 8.45037,-9.20413 10.38924,-12.39292 10.57733,-17.39618 0.29775,-7.92035 -7.05688,-10.61963 -16.69333,-6.12676 -23.77449,11.08456 -44.50763,56.75841 -44.49718,98.02461 0.009,35.51996 9.71292,62.26762 29.67596,81.79808 6.18984,6.0557 24.90292,20.77088 26.46425,20.81028 0.35366,0.01 -0.62977,-3.2615 -2.1854,-7.26778 z m 92.31023,-2.71591 c -0.86418,-2.2 -1.9042,-4 -2.31114,-4 -0.71865,0 -2.35372,5.04989 -1.75539,5.42149 0.2401,0.14911 4.82043,2.2522 5.46822,2.5108 0.0933,0.037 -0.5375,-1.73229 -1.40169,-3.93229 z" />
  </g>
</svg>
